<?xml version="1.0" encoding="utf-8"?>
<!-- Generator: Adobe Illustrator 24.1.3, SVG Export Plug-In . SVG Version: 6.00 Build 0)  -->
<svg version="1.1" id="Capa_1" xmlns="http://www.w3.org/2000/svg" xmlns:xlink="http://www.w3.org/1999/xlink" x="0px" y="0px"
	 viewBox="0 0 33.74 27.55" style="enable-background:new 0 0 33.74 27.55;" xml:space="preserve">
<style type="text/css">
	.st0{fill:#FFFFFF;}
</style>
<g>
	<path class="st0" d="M14.91,13.79c0-3.5,1.44-6.6,3.64-8.53h-6.93c0,0,0,0,0,0c-0.03,0-0.06-0.02-0.09-0.02
		C7.81,5.3,4.79,9.1,4.79,13.76c0,4.7,3.06,8.53,6.83,8.53c0,0,0,0,0,0c0.04,0,0.08,0.02,0.13,0.03h6.8
		C16.35,20.38,14.91,17.29,14.91,13.79z"/>
	<path class="st0" d="M11.62,5.23c-0.03,0-0.06,0.01-0.09,0.01c0.03,0,0.06,0.02,0.09,0.02V5.23z"/>
	<path class="st0" d="M11.62,22.29v0.03c0,0,0,0,0,0h0.13C11.71,22.31,11.67,22.29,11.62,22.29C11.62,22.29,11.62,22.29,11.62,22.29
		z"/>
	<path class="st0" d="M29.26,8.66c-0.41-0.68-0.9-1.29-1.46-1.79c-1.12-1.01-2.5-1.62-3.99-1.62c-0.03,0-0.06,0.01-0.09,0.01
		c-3.73,0.06-6.74,3.86-6.74,8.52c0,4.67,3.02,8.46,6.74,8.52c0.03,0,0.06,0.01,0.09,0.01c1.49,0,2.86-0.6,3.99-1.62
		c0.56-0.5,1.05-1.1,1.46-1.79c0.86-1.43,1.38-3.2,1.38-5.13C30.65,11.86,30.13,10.09,29.26,8.66z M22.8,9.12
		c-1.22,0.43-2.19,1.62-2.59,3.15c-0.12,0.48-0.21,0.98-0.21,1.51c0,0.57-0.46,1.04-1.04,1.04s-1.04-0.46-1.04-1.04
		c0-3.82,2.64-6.93,5.88-6.93c0.57,0,1.04,0.46,1.04,1.04c0,0.57-0.46,1.04-1.04,1.04C23.46,8.93,23.13,9.01,22.8,9.12z"/>
</g>
</svg>
